<svg width="134" height="133" viewBox="0 0 134 133" fill="none" xmlns="http://www.w3.org/2000/svg">
<g id="layer1">
<g id="botton-left_glis">
<path id="path31" opacity="0.970856" fill-rule="evenodd" clip-rule="evenodd" d="M82.7916 90.6255C82.7843 88.0763 82.5445 85.5333 82.0753 83.0288L46.2908 82.9972C37.2687 82.9892 30.0115 75.6272 30.0194 66.4905C30.0273 57.3538 37.297 50.0045 46.3191 50.0125L49.9163 50.0155C47.2917 49.4752 44.621 49.1974 41.9427 49.1861C31.0996 49.1766 20.6969 53.5296 13.023 61.2874C5.34915 69.0452 1.03268 79.5724 1.02319 90.5532C1.01381 101.534 5.31219 112.069 12.9727 119.84C20.6333 127.611 31.0285 131.983 41.8716 131.992C47.2406 131.997 52.5579 130.931 57.52 128.855C62.4821 126.778 66.9918 123.732 70.7916 119.891C74.5914 116.05 77.6068 111.488 79.6658 106.467C81.7248 101.445 82.7869 96.0624 82.7916 90.6252V90.6255Z" stroke="url(#paint0_linear)" stroke-width="1.98529" stroke-linecap="round"/>
</g>
<g id="top-right_glis">
<path id="path2712" opacity="0.970856" fill-rule="evenodd" clip-rule="evenodd" d="M49.2939 42.4015C49.2665 44.9532 49.4749 47.502 49.9163 50.0155L86.1904 50.5412C95.336 50.6738 102.592 58.1433 102.46 67.2889C102.327 76.4344 94.8574 83.6905 85.7119 83.558L82.0655 83.5053C84.7187 84.0823 87.4222 84.3973 90.137 84.4456C101.128 84.6048 111.733 80.3912 119.618 72.7318C127.502 65.0723 132.022 54.5944 132.181 43.603C132.34 32.6115 128.127 22.007 120.467 14.1223C112.808 6.23754 102.33 1.71842 91.3383 1.55906C85.8958 1.48014 80.4911 2.47396 75.4328 4.48378C70.3744 6.4936 65.7614 9.48007 61.8573 13.2727C57.9531 17.0652 54.8341 21.5897 52.6785 26.5876C50.5228 31.5856 49.3727 36.9592 49.2938 42.4016L49.2939 42.4015Z" stroke="url(#paint1_linear)" stroke-width="2" stroke-linecap="round"/>
</g>
<g id="text_glistron">
<g id="text8378">
<path id="path10741" d="M42.3676 70.3898V66.9361L41.4967 66.9466C41.1025 68.2093 41.3725 68.7819 41.3697 69.6378C41.3313 69.6623 41.3697 69.6378 41.2497 69.7232C41.0301 69.8794 40.8143 70.0581 40.8914 69.4501C40.72 68.6427 41.7314 67.6839 40.507 66.9586L39.5254 66.9361V65.5064H44.0901V71.0272C43.4183 71.5037 42.6777 71.8655 41.8681 72.1124C41.0585 72.3535 40.1933 72.4309 39.2756 72.4741C39.2028 72.4771 38.9192 72.5683 38.8439 72.8855C38.7173 73.4188 38.9067 75.0211 38.824 75.443C38.8166 75.4807 38.7526 75.6677 38.6747 75.6712C38.6 75.6742 38.4986 75.5068 38.4995 75.4949C38.5424 74.9422 38.6316 75.283 38.6296 74.99C38.6256 74.424 38.4746 73.5311 38.3454 73.1133C38.2272 72.731 37.9889 72.441 37.7726 72.3512C36.5463 71.8416 35.392 71.5786 34.5558 70.7171C33.4247 69.54 32.8591 67.9036 32.8591 65.8078C32.8591 63.7063 33.4247 62.0699 34.5558 60.8986C35.6927 59.7215 37.266 59.1329 39.2756 59.1329C40.1139 59.1329 40.9092 59.2363 41.6614 59.443C42.4193 59.6497 43.1169 59.954 43.7542 60.356V62.2077C43.7814 63.991 43.3577 64.5881 43.2458 63.9111C43.1925 63.5888 43.4447 61.971 43.4119 61.9329C42.968 61.418 42.3009 61.2033 41.7044 60.9761C40.9809 60.7005 40.2202 60.5627 39.422 60.5627C37.8488 60.5627 36.666 61.0019 35.8736 61.8804C35.087 62.7589 34.6936 64.0681 34.6936 65.8078C34.6936 67.5419 35.087 68.8481 35.8736 69.7266C36.666 70.6051 37.8488 71.0444 39.422 71.0444C40.0364 71.0444 40.5848 70.9927 41.0671 70.8894C41.5494 70.7803 41.9829 70.6137 42.3676 70.3898L42.3676 70.3898Z" fill="url(#paint2_linear)"/>
<path id="path10743" d="M47.1993 58.8229H48.7841V72.2243H47.1993V58.8229Z" fill="url(#paint3_linear)"/>
<path id="path10745" d="M52.1 62.5781H53.6847V72.2243H52.1V62.5781ZM52.1 58.8229C52.2919 58.35 53.2246 58.358 53.6847 58.8229C54.4146 59.3842 54.7131 60.5451 53.6847 60.8297C53.9407 60.8327 53.9238 61.0378 53.8412 61.2918C53.0695 61.5517 52.9022 61.5029 52.9479 60.886C52.859 61.1242 52.9666 61.4905 52.4636 61.4587C52.15 61.4677 52.0772 61.2027 52.1 60.8297C51.4978 60.8304 50.9339 60.4639 52.1 58.8229V58.8229Z" fill="url(#paint4_linear)"/>
<path id="path10747" d="M63.1501 62.8623V64.3609C62.1763 63.5619 62.4258 65.9951 62.2603 65.9688C62.1305 65.9481 62.2523 64.9613 62.1466 64.3387C62.0935 64.0262 61.9266 63.8432 61.7549 63.8441C61.2591 63.8471 60.773 63.6719 60.2563 63.6719C59.4696 63.6719 58.8782 63.7925 58.482 64.0336C58.0916 64.2748 57.8964 64.6365 57.8964 65.1188C57.8964 65.4863 58.037 65.7763 58.3184 65.9887C58.5997 66.1954 59.1653 66.3935 60.0151 66.583L60.5577 66.7036C61.6831 66.9447 62.4812 67.2864 62.9521 67.7285C63.4286 68.1649 63.6669 68.7764 63.6669 69.563C63.6669 70.4587 63.3109 71.1678 62.5989 71.6903C61.8927 72.2129 60.9194 72.4741 59.6792 72.4741C59.5414 72.4741 58.9609 72.3454 58.7837 72.7649C58.5909 73.2214 58.8061 74.2351 58.7867 74.3922C58.2781 78.57 58.3091 72.3649 58.0598 72.3191C57.5028 72.2215 56.9143 72.0722 56.2941 71.8712V70.2348C56.8798 70.5391 57.4569 70.7688 58.0253 70.9238C58.5937 71.0731 59.1564 71.1477 59.7134 71.1477C60.4598 71.1477 61.034 71.0214 61.436 70.7688C61.8379 70.5104 62.0388 70.1487 62.0388 69.6836C62.0388 69.253 61.8924 68.9228 61.5996 68.6931C61.3125 68.4635 60.678 68.2424 59.6962 68.0299L59.145 67.9007C58.1631 67.694 57.454 67.3782 57.0176 66.9533C56.5812 66.5227 56.363 65.9342 56.363 65.1877C56.363 64.2805 56.6846 63.58 57.3277 63.0862C57.9708 62.5924 58.8837 62.3455 60.0665 62.3455C60.6522 62.3455 61.2034 62.3886 61.7202 62.4747C62.2369 62.5608 62.7135 62.69 63.1499 62.8623H63.1501Z" fill="url(#paint5_linear)"/>
<path id="path10749" d="M67.758 59.8392V62.5781H71.0222V63.8097C70.9754 64.04 70.219 63.7269 70.1717 63.951C70.0441 64.5564 70.3426 66.1879 70.321 66.5062C70.2887 66.9807 69.9325 65.7684 69.5161 63.8097H67.758V69.0462C67.758 69.8329 67.8642 70.3382 68.0766 70.5621C68.2948 70.786 68.7341 70.898 69.3944 70.898H71.0222V72.2243C70.8963 72.2249 70.1974 72.0715 70.1322 72.3537C70.0485 72.7163 70.6187 74.3955 70.1292 74.3778C70.0483 74.3748 70.1342 74.6941 69.9992 74.1554C69.8659 73.6221 69.5126 72.2307 69.3943 72.2243C68.1731 72.1583 67.3272 71.9975 66.8621 71.5439C66.397 71.0846 66.1645 70.252 66.1645 69.0462V63.8097H65.0018V62.5781H66.1645V59.8392H67.758Z" fill="url(#paint6_linear)"/>
<path id="path10751" d="M78.6962 64.0595C78.5182 63.9561 78.3229 63.8815 78.1105 63.8355C77.9038 63.7839 77.6741 63.758 77.4215 63.758C76.5257 63.758 75.8367 64.0509 75.3544 64.6365C74.8778 65.2164 74.6395 66.0519 74.6395 67.1428V72.2243H73.0462V62.5781H74.6395V64.0767C74.9726 63.491 75.4061 63.0575 75.9401 62.7762C76.4741 62.4891 77.1229 62.3455 77.8866 62.3455C77.9957 62.3455 78.1162 62.3541 78.2483 62.3713C78.3804 62.3828 78.5268 62.4029 78.6875 62.4316L78.6962 64.0595Z" fill="url(#paint7_linear)"/>
<path id="path10753" d="M83.9012 66.4392C83.8023 66.4392 83.5066 67.442 83.3835 67.0347C83.1424 66.2376 83.0606 63.7552 82.895 63.8073C82.4179 63.9576 82.0173 64.2513 81.6934 64.6882C81.1996 65.3485 80.9527 66.2557 80.9527 67.4098C80.9527 68.5639 81.1967 69.474 81.6848 70.14C82.1786 70.8004 82.8532 71.1305 83.7088 71.1305C84.5528 71.1305 85.2217 70.7975 85.7155 70.1314C86.2093 69.4654 86.4562 68.5582 86.4562 67.4098C86.4562 66.2672 86.2093 65.3628 85.7155 64.6968C85.4717 64.3651 85.1852 64.1152 84.8559 63.9473C84.6239 63.829 84.7672 67.0911 84.5498 67.8665C84.4508 68.2193 84.0348 66.4392 83.9012 66.4392V66.4392ZM83.9441 66.1019C84.1247 66.1019 84.1962 65.1381 84.3324 64.6067C84.6097 63.5251 84.9084 62.4631 85.2132 62.5582C85.9013 62.7728 86.4821 63.1498 86.9558 63.6891C87.7424 64.5848 88.1357 65.8251 88.1357 67.4098C88.1357 68.9888 87.7424 70.229 86.9558 71.1305C86.4535 71.7025 85.8306 72.0918 85.0872 72.2986C85.0023 72.3222 85.1356 72.7838 85.0607 73.178C84.8148 74.4719 84.3723 76.9198 83.8829 76.6398C83.5947 76.4749 84.067 75.0688 84.2713 74.9315C84.5057 74.7739 84.3561 73.3416 83.8226 72.7213C83.3051 72.1195 82.4103 72.3281 82.1838 72.2567C81.5002 72.0413 80.9234 71.6659 80.4531 71.1305C79.6723 70.229 79.2818 68.9888 79.2818 67.4098C79.2818 65.8251 79.6723 64.5848 80.4531 63.6891C81.0398 63.021 81.7926 62.6021 82.7115 62.4323C83.0246 62.3744 83.5924 66.1019 83.9441 66.1019H83.9441Z" fill="url(#paint8_linear)"/>
<path id="path10755" d="M98.7811 66.4021V72.2243C98.4056 74.6127 98.3182 75.8385 97.924 73.7936C97.889 73.6122 98.1479 73.1063 98.1026 72.8771C98.0463 72.5925 97.2549 72.5937 97.1963 72.2243V66.4538C97.1963 65.5409 97.0776 64.0039 96.6623 64.404C96.4965 64.5638 95.6506 70.1137 95.4231 69.9327C95.2109 69.7639 95.7255 68.4584 95.6954 66.9789C95.6615 65.3131 95.0957 63.4754 95.0604 63.7236C95.0224 63.9911 93.8335 63.8705 93.7267 64.0893C93.45 64.6562 94.1354 65.4614 94.0431 66.0212C93.854 67.1672 94.0381 69.2045 93.9447 69.7546C93.731 71.0187 93.3691 69.1817 93.0364 64.5418C92.9838 63.8079 92.2957 65.8308 92.2957 66.7725V72.2243C92.1955 72.5752 91.5952 72.7378 91.4975 73.1487C91.1413 74.6456 91.2774 76.141 90.7023 72.2243V62.5781H92.2957V64.0767C92.6746 63.4968 93.1196 63.0633 93.6306 62.7762C94.1474 62.4891 94.7417 62.3455 95.4135 62.3455C96.5216 62.3455 97.36 62.69 97.9284 63.3791C98.4968 64.0623 98.7811 65.07 98.7811 66.4021H98.7811Z" fill="url(#paint9_linear)"/>
</g>
</g>
</g>
<defs>
<linearGradient id="paint0_linear" x1="0.0305315" y1="90.5892" x2="83.7843" y2="90.5892" gradientUnits="userSpaceOnUse">
<stop stop-color="#5E00A7"/>
<stop offset="1" stop-color="#7CC022"/>
</linearGradient>
<linearGradient id="paint1_linear" x1="48.2915" y1="43.0023" x2="133.185" y2="43.0023" gradientUnits="userSpaceOnUse">
<stop stop-color="#5E00A7"/>
<stop offset="1" stop-color="#7CC022"/>
</linearGradient>
<linearGradient id="paint2_linear" x1="32.8591" y1="67.5666" x2="98.781" y2="67.5666" gradientUnits="userSpaceOnUse">
<stop stop-color="#5E00A7"/>
<stop offset="1" stop-color="#7CC022"/>
</linearGradient>
<linearGradient id="paint3_linear" x1="32.8592" y1="67.5666" x2="98.781" y2="67.5666" gradientUnits="userSpaceOnUse">
<stop stop-color="#5E00A7"/>
<stop offset="1" stop-color="#7CC022"/>
</linearGradient>
<linearGradient id="paint4_linear" x1="32.8591" y1="67.5666" x2="98.781" y2="67.5666" gradientUnits="userSpaceOnUse">
<stop stop-color="#5E00A7"/>
<stop offset="1" stop-color="#7CC022"/>
</linearGradient>
<linearGradient id="paint5_linear" x1="32.8591" y1="67.5666" x2="98.7811" y2="67.5666" gradientUnits="userSpaceOnUse">
<stop stop-color="#5E00A7"/>
<stop offset="1" stop-color="#7CC022"/>
</linearGradient>
<linearGradient id="paint6_linear" x1="32.8592" y1="67.5666" x2="98.7811" y2="67.5666" gradientUnits="userSpaceOnUse">
<stop stop-color="#5E00A7"/>
<stop offset="1" stop-color="#7CC022"/>
</linearGradient>
<linearGradient id="paint7_linear" x1="32.8591" y1="67.5666" x2="98.7811" y2="67.5666" gradientUnits="userSpaceOnUse">
<stop stop-color="#5E00A7"/>
<stop offset="1" stop-color="#7CC022"/>
</linearGradient>
<linearGradient id="paint8_linear" x1="32.8592" y1="67.5666" x2="98.7811" y2="67.5666" gradientUnits="userSpaceOnUse">
<stop stop-color="#5E00A7"/>
<stop offset="1" stop-color="#7CC022"/>
</linearGradient>
<linearGradient id="paint9_linear" x1="32.8592" y1="67.5666" x2="98.7811" y2="67.5666" gradientUnits="userSpaceOnUse">
<stop stop-color="#5E00A7"/>
<stop offset="1" stop-color="#7CC022"/>
</linearGradient>
</defs>
</svg>
