<svg width="827" height="505" viewBox="0 0 827 505" fill="none" xmlns="http://www.w3.org/2000/svg">
<g id="backgrounAmin 1" clip-path="url(#clip0)">
<rect width="827" height="505" fill="white"/>
<g id="ToDisappear">
<path id="rect9218" d="M161.679 197.846H208.486V138.495H161.679V197.846Z" fill="#E737E0"/>
<path id="rect7762" d="M126.843 48.5406H80.0355V107.891H126.843V48.5406Z" fill="#E737E0"/>
<path id="path7786" fill-rule="evenodd" clip-rule="evenodd" d="M143.692 76.8053C143.595 76.8995 143.499 76.9941 143.404 77.0891C131.47 77.4547 120.127 82.2935 111.685 90.6198C103.243 98.946 98.3364 110.133 97.9658 121.903C97.5616 122.287 97.1644 122.679 96.7744 123.078C97.1584 123.47 97.5494 123.856 97.9473 124.235C98.1929 136.339 103.239 147.867 112.004 156.345C120.769 164.822 132.553 169.574 144.83 169.581C157.273 169.581 169.206 164.706 178.005 156.028C186.804 147.351 191.747 135.581 191.747 123.309C191.747 117.232 190.534 111.215 188.176 105.601C185.818 99.9871 182.362 94.886 178.005 90.5892C173.649 86.2924 168.477 82.884 162.784 80.5586C157.092 78.2332 150.991 77.0364 144.83 77.0364C144.539 77.0445 144.249 77.0552 143.958 77.0686C143.87 76.9805 143.781 76.8927 143.692 76.8053V76.8053Z" fill="#DFB742"/>
<path id="rect15893" fill-rule="evenodd" clip-rule="evenodd" d="M134.911 138.405C134.968 138.621 135.032 138.836 135.101 139.049C135.171 139.262 135.247 139.474 135.328 139.682C135.43 139.941 135.54 140.196 135.659 140.447C135.778 140.699 135.907 140.946 136.044 141.188C136.18 141.431 136.325 141.669 136.479 141.901C136.632 142.134 136.794 142.362 136.964 142.583C137.126 142.795 137.296 143.002 137.473 143.203C137.567 143.294 137.664 143.383 137.762 143.469C137.911 143.597 138.064 143.72 138.221 143.837C138.378 143.954 138.539 144.066 138.704 144.173C138.869 144.279 139.038 144.38 139.21 144.475C139.383 144.57 139.558 144.659 139.737 144.743C139.916 144.826 140.097 144.904 140.281 144.976C140.466 145.047 140.653 145.112 140.842 145.17C141.031 145.229 141.222 145.282 141.415 145.328C141.608 145.374 141.803 145.414 141.999 145.447C142.194 145.48 142.392 145.507 142.59 145.527C142.787 145.547 142.986 145.56 143.185 145.567C143.384 145.574 143.583 145.574 143.782 145.568C143.982 145.561 144.181 145.548 144.379 145.528C144.577 145.509 144.775 145.482 144.971 145.45C145.168 145.417 145.364 145.378 145.558 145.332C145.753 145.287 145.945 145.234 146.136 145.176C146.327 145.117 146.515 145.053 146.702 144.982C146.891 144.91 147.078 144.831 147.262 144.746C147.446 144.661 147.626 144.571 147.804 144.474C147.982 144.377 148.156 144.274 148.326 144.165C148.497 144.057 148.663 143.942 148.826 143.823C148.988 143.703 149.146 143.578 149.299 143.448C149.453 143.318 149.602 143.182 149.746 143.042C149.89 142.902 150.029 142.757 150.163 142.607C150.297 142.458 150.425 142.304 150.548 142.146C150.671 141.988 150.789 141.826 150.9 141.66C151.012 141.494 151.117 141.325 151.216 141.152C151.316 140.979 151.409 140.803 151.497 140.624C151.584 140.445 151.664 140.263 151.739 140.079C151.813 139.895 151.88 139.708 151.941 139.519C152.002 139.33 152.056 139.14 152.104 138.948C152.151 138.756 152.191 138.562 152.225 138.368C152.259 138.173 152.285 137.977 152.305 137.78C152.324 137.584 152.337 137.387 152.342 137.19C152.348 136.993 152.346 136.796 152.338 136.6C152.329 136.403 152.314 136.207 152.292 136.011C152.34 136.193 152.381 136.376 152.417 136.561C152.453 136.745 152.482 136.931 152.505 137.118C152.528 137.305 152.545 137.492 152.556 137.68C152.566 137.868 152.57 138.056 152.567 138.245C152.564 138.433 152.555 138.621 152.54 138.809C152.525 138.997 152.503 139.185 152.474 139.372C152.446 139.558 152.412 139.744 152.371 139.928C152.33 140.113 152.283 140.296 152.23 140.478C152.177 140.66 152.117 140.84 152.052 141.018C151.986 141.195 151.915 141.371 151.837 141.545C151.759 141.718 151.676 141.89 151.587 142.058C151.498 142.226 151.403 142.392 151.303 142.554C151.203 142.716 151.097 142.875 150.986 143.031C150.875 143.187 150.759 143.339 150.638 143.487C150.517 143.635 150.39 143.779 150.26 143.919C150.129 144.06 149.993 144.196 149.852 144.328C149.712 144.459 149.568 144.586 149.419 144.709C149.27 144.831 149.117 144.948 148.961 145.061C148.804 145.174 148.644 145.281 148.48 145.383C148.316 145.486 148.149 145.582 147.979 145.674C147.809 145.766 147.635 145.852 147.459 145.933C147.283 146.013 147.105 146.088 146.924 146.157C146.737 146.228 146.549 146.293 146.358 146.351C146.167 146.409 145.975 146.461 145.781 146.507C145.586 146.553 145.391 146.592 145.194 146.625C144.997 146.658 144.8 146.684 144.601 146.704C144.403 146.723 144.204 146.736 144.004 146.742C143.805 146.749 143.606 146.749 143.407 146.742C143.208 146.735 143.009 146.721 142.811 146.701C142.739 146.693 142.667 146.683 142.595 146.672C142.765 146.736 142.937 146.795 143.11 146.852C143.381 146.936 143.656 147.011 143.933 147.077C144.209 147.143 144.488 147.2 144.769 147.248C145.05 147.295 145.333 147.334 145.617 147.362C145.901 147.391 146.186 147.41 146.472 147.42C146.757 147.43 147.043 147.43 147.328 147.421C147.614 147.412 147.9 147.393 148.184 147.365C148.469 147.337 148.753 147.299 149.035 147.252C149.318 147.205 149.599 147.149 149.877 147.083C150.156 147.018 150.432 146.943 150.706 146.859C150.979 146.775 151.25 146.682 151.517 146.581C151.789 146.477 152.057 146.364 152.321 146.243C152.585 146.121 152.844 145.991 153.099 145.851C153.354 145.713 153.604 145.565 153.848 145.409C154.093 145.254 154.332 145.09 154.565 144.918C154.797 144.746 155.024 144.566 155.245 144.379C155.465 144.193 155.679 143.999 155.885 143.797C156.092 143.596 156.292 143.388 156.483 143.173C156.676 142.959 156.86 142.738 157.036 142.511C157.213 142.285 157.381 142.052 157.541 141.814C157.701 141.576 157.853 141.333 157.996 141.085C158.138 140.837 158.272 140.585 158.397 140.328C158.522 140.071 158.638 139.81 158.745 139.546C158.851 139.282 158.948 139.014 159.035 138.743C159.122 138.472 159.2 138.199 159.268 137.923C159.336 137.648 159.394 137.37 159.442 137.09C159.49 136.811 159.528 136.53 159.557 136.248C159.585 135.967 159.603 135.684 159.611 135.402C159.619 135.119 159.617 134.836 159.605 134.554C159.593 134.272 159.571 133.99 159.539 133.709C159.608 133.97 159.668 134.233 159.719 134.498C159.77 134.763 159.813 135.03 159.846 135.298C159.879 135.566 159.903 135.835 159.918 136.104C159.932 136.374 159.938 136.644 159.934 136.914C159.93 137.185 159.917 137.455 159.895 137.725C159.873 137.994 159.842 138.263 159.801 138.531C159.761 138.798 159.711 139.065 159.653 139.33C159.594 139.595 159.527 139.858 159.45 140.118C159.374 140.379 159.289 140.637 159.195 140.893C159.101 141.148 158.998 141.4 158.887 141.649C158.776 141.898 158.656 142.144 158.528 142.385C158.401 142.627 158.265 142.864 158.121 143.097C157.977 143.33 157.825 143.558 157.666 143.781C157.507 144.005 157.34 144.223 157.166 144.436C156.992 144.648 156.811 144.855 156.623 145.056C156.435 145.258 156.241 145.453 156.039 145.642C155.838 145.831 155.631 146.013 155.418 146.188C155.204 146.364 154.985 146.533 154.76 146.694C154.536 146.856 154.305 147.01 154.07 147.157C153.835 147.304 153.596 147.443 153.351 147.574C153.107 147.706 152.858 147.829 152.606 147.945C152.353 148.06 152.097 148.168 151.837 148.267C151.57 148.368 151.299 148.461 151.026 148.545C150.752 148.629 150.476 148.704 150.197 148.769C149.919 148.835 149.638 148.891 149.356 148.939C149.073 148.985 148.79 149.023 148.505 149.051C148.22 149.079 147.935 149.098 147.649 149.107C147.363 149.116 147.077 149.116 146.791 149.106C146.506 149.096 146.221 149.077 145.937 149.048C145.653 149.02 145.37 148.981 145.089 148.934C144.808 148.886 144.529 148.83 144.252 148.764C143.976 148.697 143.701 148.622 143.43 148.537C143.159 148.453 142.891 148.36 142.626 148.257C142.362 148.155 142.101 148.044 141.844 147.924C141.588 147.805 141.336 147.676 141.089 147.54C140.841 147.403 140.599 147.258 140.362 147.106C140.125 146.953 139.894 146.792 139.669 146.624C139.443 146.456 139.224 146.28 139.011 146.097C138.798 145.914 138.591 145.724 138.392 145.527C138.193 145.33 138 145.126 137.815 144.917C137.63 144.707 137.453 144.491 137.283 144.27C137.114 144.048 136.952 143.82 136.798 143.587C136.645 143.355 136.5 143.117 136.363 142.874C136.226 142.632 136.098 142.385 135.979 142.134C135.868 141.899 135.764 141.661 135.669 141.421C135.668 141.42 135.668 141.418 135.668 141.417C135.664 141.409 135.66 141.4 135.657 141.391C135.655 141.387 135.653 141.383 135.651 141.379C135.649 141.375 135.648 141.372 135.646 141.368C135.646 141.368 135.646 141.367 135.646 141.367C135.644 141.364 135.643 141.361 135.642 141.357C135.642 141.356 135.642 141.355 135.641 141.354C135.64 141.352 135.64 141.35 135.639 141.348C135.634 141.333 135.629 141.318 135.624 141.303L135.126 139.282L134.909 138.404L134.911 138.405Z" fill="#D04DD8"/>
<path id="path12095" fill-rule="evenodd" clip-rule="evenodd" d="M130.934 109.389C129.878 109.389 128.832 109.594 127.856 109.993C126.88 110.392 125.994 110.976 125.247 111.713C124.5 112.449 123.907 113.324 123.503 114.286C123.099 115.249 122.891 116.28 122.89 117.322C122.891 117.936 122.964 118.548 123.108 119.146C123.193 117.101 124.077 115.168 125.573 113.75C127.07 112.333 129.064 111.541 131.139 111.539C132.95 111.539 134.707 112.142 136.128 113.25C137.548 114.357 138.548 115.905 138.965 117.642C138.972 117.536 138.976 117.429 138.978 117.322C138.978 115.218 138.13 113.201 136.622 111.713C135.113 110.225 133.068 109.389 130.934 109.389H130.934Z" stroke="white" stroke-width="1.70079" stroke-linejoin="round"/>
<path id="path12097" fill-rule="evenodd" clip-rule="evenodd" d="M161.857 108.999C162.913 108.999 163.959 109.204 164.935 109.603C165.911 110.001 166.798 110.586 167.545 111.322C168.292 112.059 168.884 112.933 169.289 113.896C169.693 114.858 169.901 115.89 169.901 116.932C169.9 117.546 169.827 118.158 169.683 118.755C169.598 116.711 168.715 114.778 167.218 113.36C165.722 111.943 163.727 111.15 161.652 111.149C159.842 111.149 158.084 111.752 156.664 112.859C155.244 113.967 154.244 115.514 153.826 117.252C153.82 117.145 153.816 117.039 153.814 116.932C153.814 114.828 154.661 112.81 156.17 111.322C157.678 109.835 159.724 108.999 161.857 108.999H161.857Z" stroke="white" stroke-width="1.70079" stroke-linejoin="round"/>
<path id="ellipse12099" d="M131.136 123.307C133.571 123.307 135.545 121.378 135.545 118.997C135.545 116.617 133.571 114.687 131.136 114.687C128.701 114.687 126.727 116.617 126.727 118.997C126.727 121.378 128.701 123.307 131.136 123.307Z" fill="white" fill-opacity="0.994881"/>
<path id="ellipse12101" d="M161.172 123.188C158.736 123.188 156.762 121.259 156.762 118.878C156.762 116.498 158.736 114.568 161.172 114.568C163.607 114.568 165.581 116.498 165.581 118.878C165.581 121.259 163.607 123.188 161.172 123.188Z" fill="white"/>
<path id="ellipse12103" d="M131.2 120.977C132.175 120.977 132.965 120.168 132.965 119.171C132.965 118.173 132.175 117.364 131.2 117.364C130.225 117.364 129.435 118.173 129.435 119.171C129.435 120.168 130.225 120.977 131.2 120.977Z" fill="#0C0C0C" fill-opacity="0.994881" stroke="#0C0C0C" stroke-width="1.7128" stroke-linejoin="round"/>
<g id="ellipse12105" filter="url(#filter0_f)">
<path d="M131.169 120.179C131.708 120.179 132.145 119.75 132.145 119.22C132.145 118.691 131.708 118.262 131.169 118.262C130.63 118.262 130.193 118.691 130.193 119.22C130.193 119.75 130.63 120.179 131.169 120.179Z" fill="#E8FFE9" fill-opacity="0.994881"/>
<path d="M131.169 120.179C131.708 120.179 132.145 119.75 132.145 119.22C132.145 118.691 131.708 118.262 131.169 118.262C130.63 118.262 130.193 118.691 130.193 119.22C130.193 119.75 130.63 120.179 131.169 120.179Z" stroke="#0C0C0C" stroke-width="1.70079" stroke-linejoin="round"/>
</g>
<path id="ellipse12107" d="M161.238 120.881C160.263 120.881 159.473 120.072 159.473 119.074C159.473 118.077 160.263 117.268 161.238 117.268C162.213 117.268 163.003 118.077 163.003 119.074C163.003 120.072 162.213 120.881 161.238 120.881Z" fill="#0C0C0C" fill-opacity="0.994881" stroke="#0C0C0C" stroke-width="1.7128" stroke-linejoin="round"/>
<g id="ellipse12109" filter="url(#filter1_f)">
<path d="M161.269 120.083C160.73 120.083 160.292 119.653 160.292 119.124C160.292 118.595 160.73 118.166 161.269 118.166C161.808 118.166 162.245 118.595 162.245 119.124C162.245 119.653 161.808 120.083 161.269 120.083Z" fill="#E8FFE9" fill-opacity="0.994881"/>
<path d="M161.269 120.083C160.73 120.083 160.292 119.653 160.292 119.124C160.292 118.595 160.73 118.166 161.269 118.166C161.808 118.166 162.245 118.595 162.245 119.124C162.245 119.653 161.808 120.083 161.269 120.083Z" stroke="#0C0C0C" stroke-width="1.70079" stroke-linejoin="round"/>
</g>
<path id="circle12557" d="M13.0653 276.4C41.2679 276.4 64.1306 253.851 64.1306 226.037C64.1306 198.222 41.2679 175.674 13.0653 175.674C-15.1373 175.674 -38 198.222 -38 226.037C-38 253.851 -15.1373 276.4 13.0653 276.4Z" fill="url(#paint0_linear)"/>
<path id="circle13435" d="M313.139 -33C284.937 -33 262.074 -10.4517 262.074 17.363C262.074 45.1777 284.937 67.726 313.139 67.726C341.342 67.726 364.204 45.1777 364.204 17.363C364.204 -10.4517 341.342 -33 313.139 -33Z" fill="url(#paint1_linear)"/>
<path id="rect13541" d="M28.6746 28.9401L14.1577 42.3343L30.7806 59.8584L45.2975 46.4642L28.6746 28.9401Z" fill="#DFAD42"/>
<path id="rect13623" d="M243.971 73.1036L229.455 86.4978L246.077 104.022L260.594 90.6277L243.971 73.1036Z" fill="#DFAD42"/>
<path id="rect13625" d="M106.054 186.231L91.5373 199.625L108.16 217.149L122.677 203.755L106.054 186.231Z" fill="#DFAD42"/>
<path id="path13649" d="M27.6853 38.6515C32.7569 38.6515 36.8683 34.0864 36.8683 28.4551C36.8683 22.8239 32.7569 18.2588 27.6853 18.2588C22.6136 18.2588 18.5022 22.8239 18.5022 28.4551C18.5022 34.0864 22.6136 38.6515 27.6853 38.6515Z" fill="#D04DD8"/>
<path id="ellipse15865" d="M240.709 84.3811C245.78 84.3811 249.892 79.816 249.892 74.1847C249.892 68.5535 245.78 63.9884 240.709 63.9884C235.637 63.9884 231.526 68.5535 231.526 74.1847C231.526 79.816 235.637 84.3811 240.709 84.3811Z" fill="#D04DD8"/>
<path id="ellipse15867" d="M105.116 195.494C110.188 195.494 114.299 190.929 114.299 185.298C114.299 179.667 110.188 175.102 105.116 175.102C100.044 175.102 95.9331 179.667 95.9331 185.298C95.9331 190.929 100.044 195.494 105.116 195.494Z" fill="#D04DD8"/>
<path id="path15869" fill-rule="evenodd" clip-rule="evenodd" d="M159.539 133.709C159.59 134.154 159.616 134.602 159.616 135.049C159.616 138.281 158.29 141.38 155.93 143.666C153.57 145.951 150.369 147.235 147.031 147.235C144.239 147.233 141.527 146.332 139.321 144.674C137.116 143.016 135.543 140.694 134.849 138.075C135.19 141.055 136.653 143.809 138.959 145.81C141.265 147.811 144.252 148.919 147.349 148.921C149.001 148.921 150.638 148.606 152.165 147.994C153.692 147.381 155.079 146.484 156.247 145.352C157.416 144.221 158.343 142.877 158.976 141.399C159.608 139.92 159.934 138.336 159.934 136.736C159.933 135.715 159.801 134.698 159.539 133.709H159.539Z" fill="#B042DF"/>
</g>
<g id="layer1">
<g id="boxTwo">
<path id="rect9218_2" d="M663.679 465.846H710.486V406.495H663.679V465.846Z" fill="#E737E0"/>
</g>
<g id="boxOne">
<path id="rect7762_2" d="M628.843 316.541H582.036V375.891H628.843V316.541Z" fill="#E737E0"/>
</g>
<path id="path7786_2" fill-rule="evenodd" clip-rule="evenodd" d="M645.691 344.805C645.595 344.899 645.499 344.994 645.404 345.089C633.47 345.455 622.127 350.294 613.685 358.62C605.243 366.946 600.336 378.133 599.966 389.903C599.562 390.287 599.164 390.679 598.774 391.078C599.158 391.47 599.549 391.856 599.947 392.235C600.193 404.339 605.239 415.867 614.004 424.345C622.769 432.822 634.553 437.574 646.83 437.581C659.273 437.581 671.206 432.706 680.005 424.028C688.804 415.351 693.747 403.581 693.747 391.309C693.747 385.232 692.534 379.215 690.176 373.601C687.818 367.987 684.362 362.886 680.005 358.589C675.649 354.292 670.477 350.884 664.784 348.559C659.092 346.233 652.991 345.036 646.83 345.036C646.539 345.044 646.249 345.055 645.958 345.069C645.87 344.98 645.781 344.893 645.691 344.805V344.805Z" fill="#DFB742"/>
<path id="fist_mouth" fill-rule="evenodd" clip-rule="evenodd" d="M636.911 406.405C636.968 406.621 637.032 406.836 637.101 407.049C637.171 407.262 637.247 407.474 637.328 407.682C637.43 407.941 637.54 408.196 637.659 408.447C637.778 408.699 637.907 408.946 638.044 409.188C638.18 409.431 638.325 409.669 638.479 409.901C638.632 410.134 638.794 410.362 638.964 410.583C639.126 410.795 639.296 411.002 639.473 411.203C639.567 411.294 639.664 411.383 639.762 411.469C639.911 411.597 640.064 411.72 640.221 411.837C640.378 411.954 640.539 412.066 640.704 412.173C640.869 412.279 641.038 412.38 641.21 412.475C641.383 412.57 641.558 412.659 641.737 412.743C641.916 412.826 642.097 412.904 642.281 412.976C642.466 413.047 642.653 413.112 642.842 413.17C643.031 413.229 643.222 413.282 643.415 413.328C643.608 413.374 643.803 413.414 643.999 413.447C644.194 413.48 644.392 413.507 644.59 413.527C644.787 413.547 644.986 413.56 645.185 413.567C645.384 413.574 645.583 413.574 645.782 413.568C645.982 413.561 646.18 413.548 646.379 413.528C646.577 413.509 646.775 413.482 646.971 413.45C647.168 413.417 647.364 413.378 647.558 413.332C647.753 413.287 647.945 413.234 648.136 413.176C648.327 413.117 648.515 413.053 648.702 412.982C648.891 412.91 649.078 412.831 649.262 412.746C649.446 412.661 649.626 412.571 649.804 412.474C649.981 412.377 650.156 412.274 650.326 412.165C650.497 412.057 650.663 411.942 650.825 411.823C650.988 411.703 651.146 411.578 651.299 411.448C651.453 411.318 651.602 411.182 651.746 411.042C651.89 410.902 652.029 410.757 652.163 410.607C652.297 410.458 652.425 410.304 652.548 410.146C652.671 409.988 652.789 409.826 652.9 409.66C653.012 409.494 653.117 409.325 653.216 409.152C653.316 408.979 653.409 408.803 653.497 408.624C653.584 408.445 653.664 408.263 653.739 408.079C653.813 407.895 653.88 407.708 653.941 407.519C654.002 407.33 654.056 407.14 654.104 406.948C654.151 406.756 654.191 406.562 654.225 406.368C654.259 406.173 654.285 405.977 654.305 405.78C654.324 405.584 654.337 405.387 654.342 405.19C654.348 404.993 654.346 404.796 654.338 404.6C654.329 404.403 654.314 404.207 654.292 404.011C654.34 404.193 654.381 404.376 654.417 404.561C654.453 404.745 654.482 404.931 654.505 405.118C654.528 405.305 654.545 405.492 654.556 405.68C654.566 405.868 654.57 406.056 654.567 406.245C654.564 406.433 654.555 406.621 654.54 406.809C654.525 406.997 654.503 407.185 654.474 407.372C654.446 407.558 654.412 407.744 654.371 407.928C654.33 408.113 654.283 408.296 654.23 408.478C654.177 408.66 654.117 408.84 654.052 409.018C653.986 409.195 653.915 409.371 653.837 409.545C653.759 409.718 653.676 409.89 653.587 410.058C653.498 410.226 653.403 410.392 653.303 410.554C653.203 410.716 653.097 410.875 652.986 411.031C652.875 411.187 652.759 411.339 652.638 411.487C652.517 411.635 652.39 411.779 652.26 411.919C652.128 412.06 651.993 412.196 651.852 412.328C651.712 412.459 651.568 412.586 651.419 412.709C651.27 412.831 651.117 412.948 650.961 413.061C650.804 413.174 650.644 413.281 650.48 413.383C650.316 413.486 650.149 413.582 649.979 413.674C649.809 413.766 649.635 413.852 649.459 413.933C649.283 414.013 649.105 414.088 648.924 414.157C648.737 414.228 648.549 414.293 648.358 414.351C648.167 414.409 647.975 414.461 647.78 414.507C647.586 414.553 647.391 414.592 647.194 414.625C646.997 414.658 646.8 414.684 646.601 414.704C646.403 414.723 646.204 414.736 646.004 414.742C645.805 414.749 645.606 414.749 645.407 414.742C645.208 414.735 645.009 414.721 644.811 414.701C644.739 414.693 644.667 414.683 644.595 414.672C644.765 414.736 644.937 414.795 645.11 414.852C645.381 414.936 645.656 415.011 645.933 415.077C646.209 415.143 646.488 415.2 646.769 415.248C647.05 415.295 647.333 415.334 647.617 415.362C647.901 415.391 648.186 415.41 648.472 415.42C648.757 415.43 649.043 415.43 649.328 415.421C649.614 415.412 649.9 415.393 650.184 415.365C650.469 415.337 650.753 415.299 651.035 415.252C651.318 415.205 651.599 415.149 651.877 415.083C652.156 415.018 652.432 414.943 652.706 414.859C652.979 414.775 653.25 414.682 653.517 414.581C653.789 414.477 654.057 414.364 654.321 414.243C654.585 414.121 654.844 413.991 655.099 413.851C655.354 413.713 655.604 413.565 655.848 413.409C656.093 413.254 656.332 413.09 656.565 412.918C656.797 412.746 657.024 412.566 657.245 412.379C657.465 412.193 657.679 411.999 657.885 411.797C658.092 411.596 658.291 411.388 658.483 411.173C658.675 410.959 658.86 410.738 659.036 410.511C659.213 410.285 659.381 410.052 659.541 409.814C659.701 409.576 659.853 409.333 659.996 409.085C660.138 408.837 660.272 408.585 660.397 408.328C660.522 408.071 660.638 407.81 660.745 407.546C660.851 407.282 660.948 407.014 661.035 406.743C661.122 406.472 661.2 406.199 661.268 405.923C661.336 405.648 661.394 405.37 661.442 405.09C661.49 404.811 661.528 404.53 661.557 404.248C661.585 403.967 661.603 403.684 661.611 403.402C661.619 403.119 661.617 402.836 661.605 402.554C661.593 402.272 661.571 401.99 661.539 401.709C661.608 401.97 661.668 402.233 661.719 402.498C661.77 402.763 661.813 403.03 661.846 403.298C661.879 403.566 661.903 403.835 661.918 404.104C661.932 404.374 661.938 404.644 661.934 404.914C661.93 405.185 661.917 405.455 661.895 405.725C661.873 405.994 661.842 406.263 661.801 406.531C661.761 406.798 661.711 407.065 661.653 407.33C661.594 407.595 661.527 407.858 661.45 408.118C661.374 408.379 661.289 408.637 661.195 408.893C661.101 409.148 660.998 409.4 660.887 409.649C660.776 409.898 660.656 410.144 660.528 410.385C660.401 410.627 660.265 410.864 660.121 411.097C659.977 411.33 659.825 411.558 659.666 411.781C659.507 412.005 659.34 412.223 659.166 412.436C658.992 412.648 658.811 412.855 658.623 413.056C658.435 413.258 658.241 413.453 658.039 413.642C657.838 413.831 657.631 414.013 657.418 414.188C657.204 414.364 656.985 414.533 656.76 414.694C656.536 414.856 656.305 415.01 656.07 415.157C655.835 415.304 655.596 415.443 655.351 415.574C655.107 415.706 654.858 415.829 654.606 415.945C654.353 416.06 654.097 416.168 653.837 416.267C653.57 416.368 653.299 416.461 653.026 416.545C652.752 416.629 652.476 416.704 652.197 416.769C651.919 416.835 651.638 416.891 651.356 416.939C651.073 416.985 650.79 417.023 650.505 417.051C650.22 417.079 649.935 417.098 649.649 417.107C649.363 417.116 649.077 417.116 648.791 417.106C648.506 417.096 648.221 417.077 647.937 417.048C647.653 417.02 647.37 416.981 647.089 416.934C646.808 416.886 646.529 416.83 646.252 416.764C645.976 416.697 645.701 416.622 645.43 416.537C645.159 416.453 644.891 416.36 644.626 416.257C644.362 416.155 644.101 416.044 643.844 415.924C643.588 415.805 643.336 415.676 643.089 415.54C642.841 415.403 642.599 415.258 642.362 415.106C642.125 414.953 641.894 414.792 641.669 414.624C641.443 414.456 641.224 414.28 641.011 414.097C640.798 413.914 640.591 413.724 640.392 413.527C640.193 413.33 640 413.126 639.815 412.917C639.63 412.707 639.453 412.491 639.283 412.27C639.114 412.048 638.952 411.82 638.798 411.587C638.645 411.355 638.5 411.117 638.363 410.874C638.226 410.632 638.098 410.385 637.979 410.134C637.867 409.899 637.764 409.661 637.669 409.421C637.668 409.42 637.668 409.418 637.668 409.417C637.664 409.409 637.66 409.4 637.657 409.391C637.655 409.387 637.653 409.383 637.651 409.379C637.649 409.375 637.648 409.372 637.646 409.368C637.646 409.368 637.646 409.367 637.646 409.367C637.644 409.364 637.643 409.361 637.642 409.357C637.642 409.356 637.642 409.355 637.641 409.354C637.64 409.352 637.64 409.35 637.639 409.348C637.634 409.333 637.629 409.318 637.624 409.303L637.126 407.282L636.909 406.404L636.911 406.405Z" fill="#D04DD8"/>
<g id="eye_two eye">
<path id="path12095_2" fill-rule="evenodd" clip-rule="evenodd" d="M632.934 377.389C631.878 377.389 630.832 377.594 629.856 377.993C628.88 378.392 627.994 378.976 627.247 379.713C626.5 380.449 625.907 381.324 625.503 382.286C625.099 383.249 624.891 384.28 624.89 385.322C624.891 385.936 624.964 386.548 625.108 387.146C625.193 385.101 626.077 383.168 627.573 381.75C629.07 380.333 631.064 379.541 633.139 379.539C634.95 379.539 636.707 380.142 638.128 381.25C639.548 382.357 640.548 383.905 640.965 385.642C640.972 385.536 640.976 385.429 640.978 385.322C640.978 383.218 640.13 381.201 638.622 379.713C637.113 378.225 635.068 377.389 632.934 377.389H632.934Z" stroke="white" stroke-width="1.70079" stroke-linejoin="round"/>
</g>
<g id="eye_one eye">
<path id="path12097_2" fill-rule="evenodd" clip-rule="evenodd" d="M663.857 376.999C664.913 376.999 665.959 377.204 666.935 377.603C667.911 378.001 668.798 378.586 669.545 379.322C670.292 380.059 670.884 380.933 671.289 381.896C671.693 382.858 671.901 383.89 671.901 384.932C671.9 385.546 671.827 386.158 671.683 386.755C671.598 384.711 670.715 382.778 669.218 381.36C667.722 379.943 665.727 379.15 663.652 379.149C661.842 379.149 660.084 379.752 658.664 380.859C657.244 381.967 656.244 383.514 655.826 385.252C655.82 385.145 655.816 385.039 655.814 384.932C655.814 382.828 656.661 380.81 658.17 379.322C659.678 377.835 661.724 376.999 663.857 376.999H663.857Z" stroke="white" stroke-width="1.70079" stroke-linejoin="round"/>
</g>
<path id="ellipse12099_2" d="M633.136 391.307C635.571 391.307 637.545 389.378 637.545 386.997C637.545 384.617 635.571 382.687 633.136 382.687C630.701 382.687 628.727 384.617 628.727 386.997C628.727 389.378 630.701 391.307 633.136 391.307Z" fill="white" fill-opacity="0.994881"/>
<path id="ellipse12101_2" d="M663.172 391.188C660.736 391.188 658.762 389.259 658.762 386.878C658.762 384.498 660.736 382.568 663.172 382.568C665.607 382.568 667.581 384.498 667.581 386.878C667.581 389.259 665.607 391.188 663.172 391.188Z" fill="white"/>
<path id="ellipse12103_2" d="M633.2 388.977C634.175 388.977 634.965 388.168 634.965 387.171C634.965 386.173 634.175 385.364 633.2 385.364C632.225 385.364 631.435 386.173 631.435 387.171C631.435 388.168 632.225 388.977 633.2 388.977Z" fill="#0C0C0C" fill-opacity="0.994881" stroke="#0C0C0C" stroke-width="1.7128" stroke-linejoin="round"/>
<g id="ellipse12105_2" filter="url(#filter2_f)">
<path d="M633.169 388.179C633.708 388.179 634.145 387.75 634.145 387.22C634.145 386.691 633.708 386.262 633.169 386.262C632.63 386.262 632.193 386.691 632.193 387.22C632.193 387.75 632.63 388.179 633.169 388.179Z" fill="#E8FFE9" fill-opacity="0.994881"/>
<path d="M633.169 388.179C633.708 388.179 634.145 387.75 634.145 387.22C634.145 386.691 633.708 386.262 633.169 386.262C632.63 386.262 632.193 386.691 632.193 387.22C632.193 387.75 632.63 388.179 633.169 388.179Z" stroke="#0C0C0C" stroke-width="1.70079" stroke-linejoin="round"/>
</g>
<path id="ellipse12107_2" d="M663.238 388.881C662.263 388.881 661.473 388.072 661.473 387.074C661.473 386.077 662.263 385.268 663.238 385.268C664.213 385.268 665.003 386.077 665.003 387.074C665.003 388.072 664.213 388.881 663.238 388.881Z" fill="#0C0C0C" fill-opacity="0.994881" stroke="#0C0C0C" stroke-width="1.7128" stroke-linejoin="round"/>
<g id="ellipse12109_2" filter="url(#filter3_f)">
<path d="M663.269 388.083C662.73 388.083 662.292 387.653 662.292 387.124C662.292 386.595 662.73 386.166 663.269 386.166C663.808 386.166 664.245 386.595 664.245 387.124C664.245 387.653 663.808 388.083 663.269 388.083Z" fill="#E8FFE9" fill-opacity="0.994881"/>
<path d="M663.269 388.083C662.73 388.083 662.292 387.653 662.292 387.124C662.292 386.595 662.73 386.166 663.269 386.166C663.808 386.166 664.245 386.595 664.245 387.124C664.245 387.653 663.808 388.083 663.269 388.083Z" stroke="#0C0C0C" stroke-width="1.70079" stroke-linejoin="round"/>
</g>
<g id="float up">
<path id="float up_2" d="M515.065 544.4C543.268 544.4 566.131 521.851 566.131 494.037C566.131 466.222 543.268 443.674 515.065 443.674C486.863 443.674 464 466.222 464 494.037C464 521.851 486.863 544.4 515.065 544.4Z" fill="url(#paint2_linear)"/>
</g>
<g id="float down">
<path id="float down_2" d="M815.139 235C786.937 235 764.074 257.548 764.074 285.363C764.074 313.178 786.937 335.726 815.139 335.726C843.342 335.726 866.204 313.178 866.204 285.363C866.204 257.548 843.342 235 815.139 235Z" fill="url(#paint3_linear)"/>
</g>
<path id="rect13541_2" d="M530.675 296.94L516.158 310.334L532.781 327.858L547.298 314.464L530.675 296.94Z" fill="#DFAD42"/>
<path id="rect13623_2" d="M745.971 341.104L731.455 354.498L748.077 372.022L762.594 358.628L745.971 341.104Z" fill="#DFAD42"/>
<path id="rect13625_2" d="M608.054 454.231L593.537 467.625L610.16 485.149L624.677 471.755L608.054 454.231Z" fill="#DFAD42"/>
<path id="path13649_2" d="M529.685 306.651C534.757 306.651 538.868 302.086 538.868 296.455C538.868 290.824 534.757 286.259 529.685 286.259C524.614 286.259 520.502 290.824 520.502 296.455C520.502 302.086 524.614 306.651 529.685 306.651Z" fill="#D04DD8"/>
<path id="ellipse15865_2" d="M742.709 352.381C747.78 352.381 751.892 347.816 751.892 342.185C751.892 336.553 747.78 331.988 742.709 331.988C737.637 331.988 733.526 336.553 733.526 342.185C733.526 347.816 737.637 352.381 742.709 352.381Z" fill="#D04DD8"/>
<path id="ellipse15867_2" d="M607.116 463.494C612.188 463.494 616.299 458.929 616.299 453.298C616.299 447.667 612.188 443.102 607.116 443.102C602.044 443.102 597.933 447.667 597.933 453.298C597.933 458.929 602.044 463.494 607.116 463.494Z" fill="#D04DD8"/>
<g id="second_mouth">
<path id="second_mouth_2" fill-rule="evenodd" clip-rule="evenodd" d="M660.69 401C660.741 401.445 660.767 401.892 660.767 402.34C660.767 405.572 659.441 408.671 657.081 410.956C654.721 413.241 651.52 414.525 648.182 414.525C645.39 414.523 642.678 413.623 640.472 411.964C638.267 410.306 636.693 407.985 636 405.366C636.34 408.346 637.804 411.1 640.11 413.101C642.416 415.102 645.403 416.21 648.5 416.212C650.152 416.212 651.789 415.897 653.316 415.284C654.842 414.672 656.23 413.774 657.398 412.643C658.567 411.511 659.494 410.168 660.126 408.689C660.759 407.211 661.084 405.627 661.084 404.026C661.084 403.005 660.952 401.989 660.69 401H660.69Z" fill="#B042DF"/>
</g>
</g>
<g id="openWide">
<rect id="Rectangle 1" x="-23" y="489.575" width="981.504" height="28.3527" transform="rotate(-30.5965 -23 489.575)" fill="#CA7F85" fill-opacity="0.31"/>
</g>
</g>
<defs>
<filter id="filter0_f" x="127.842" y="115.911" width="6.6542" height="6.6187" filterUnits="userSpaceOnUse" color-interpolation-filters="sRGB">
<feFlood flood-opacity="0" result="BackgroundImageFix"/>
<feBlend mode="normal" in="SourceGraphic" in2="BackgroundImageFix" result="shape"/>
<feGaussianBlur stdDeviation="0.750236" result="effect1_foregroundBlur"/>
</filter>
<filter id="filter1_f" x="157.942" y="115.815" width="6.65419" height="6.61866" filterUnits="userSpaceOnUse" color-interpolation-filters="sRGB">
<feFlood flood-opacity="0" result="BackgroundImageFix"/>
<feBlend mode="normal" in="SourceGraphic" in2="BackgroundImageFix" result="shape"/>
<feGaussianBlur stdDeviation="0.750236" result="effect1_foregroundBlur"/>
</filter>
<filter id="filter2_f" x="629.842" y="383.911" width="6.6542" height="6.6187" filterUnits="userSpaceOnUse" color-interpolation-filters="sRGB">
<feFlood flood-opacity="0" result="BackgroundImageFix"/>
<feBlend mode="normal" in="SourceGraphic" in2="BackgroundImageFix" result="shape"/>
<feGaussianBlur stdDeviation="0.750236" result="effect1_foregroundBlur"/>
</filter>
<filter id="filter3_f" x="659.942" y="383.815" width="6.65419" height="6.61866" filterUnits="userSpaceOnUse" color-interpolation-filters="sRGB">
<feFlood flood-opacity="0" result="BackgroundImageFix"/>
<feBlend mode="normal" in="SourceGraphic" in2="BackgroundImageFix" result="shape"/>
<feGaussianBlur stdDeviation="0.750236" result="effect1_foregroundBlur"/>
</filter>
<linearGradient id="paint0_linear" x1="44.6042" y1="197.119" x2="-9.96659" y2="248.995" gradientUnits="userSpaceOnUse">
<stop stop-color="#DFAD42"/>
<stop offset="0.664209" stop-color="#CA7F85" stop-opacity="0.568627"/>
<stop offset="1" stop-color="#B042DF" stop-opacity="0"/>
</linearGradient>
<linearGradient id="paint1_linear" x1="281.6" y1="46.2804" x2="336.171" y2="-5.5954" gradientUnits="userSpaceOnUse">
<stop stop-color="#DFAD42"/>
<stop offset="0.664209" stop-color="#CA7F85" stop-opacity="0.568627"/>
<stop offset="1" stop-color="#B042DF" stop-opacity="0"/>
</linearGradient>
<linearGradient id="paint2_linear" x1="546.604" y1="465.119" x2="492.033" y2="516.995" gradientUnits="userSpaceOnUse">
<stop stop-color="#DFAD42"/>
<stop offset="0.664209" stop-color="#CA7F85" stop-opacity="0.568627"/>
<stop offset="1" stop-color="#B042DF" stop-opacity="0"/>
</linearGradient>
<linearGradient id="paint3_linear" x1="783.6" y1="314.28" x2="838.171" y2="262.405" gradientUnits="userSpaceOnUse">
<stop stop-color="#DFAD42"/>
<stop offset="0.664209" stop-color="#CA7F85" stop-opacity="0.568627"/>
<stop offset="1" stop-color="#B042DF" stop-opacity="0"/>
</linearGradient>
<clipPath id="clip0">
<rect width="827" height="505" fill="white"/>
</clipPath>
</defs>
</svg>
