<?xml version="1.0" encoding="UTF-8" standalone="no"?>
<!-- Created with Inkscape (http://www.inkscape.org/) -->

<svg
   width="210mm"
   height="297mm"
   viewBox="0 0 210 297"
   version="1.1"
   id="svg5"
   inkscape:export-filename="/home/tifukelison/bidtmap.png"
   inkscape:export-xdpi="96.400002"
   inkscape:export-ydpi="96.400002"
   inkscape:version="1.1 (1:1.1+202105261517+ce6663b3b7)"
   sodipodi:docname="logo.svg"
   xmlns:inkscape="http://www.inkscape.org/namespaces/inkscape"
   xmlns:sodipodi="http://sodipodi.sourceforge.net/DTD/sodipodi-0.dtd"
   xmlns:xlink="http://www.w3.org/1999/xlink"
   xmlns="http://www.w3.org/2000/svg"
   xmlns:svg="http://www.w3.org/2000/svg">
  <sodipodi:namedview
     id="namedview7"
     pagecolor="#ffffff"
     bordercolor="#999999"
     borderopacity="1"
     inkscape:pageshadow="0"
     inkscape:pageopacity="0"
     inkscape:pagecheckerboard="0"
     inkscape:document-units="mm"
     showgrid="false"
     inkscape:zoom="0.25071142"
     inkscape:cx="183.47788"
     inkscape:cy="520.51878"
     inkscape:window-width="1366"
     inkscape:window-height="683"
     inkscape:window-x="0"
     inkscape:window-y="0"
     inkscape:window-maximized="1"
     inkscape:current-layer="layer1" />
  <defs
     id="defs2">
    <linearGradient
       inkscape:collect="always"
       id="linearGradient21056">
      <stop
         style="stop-color:#5e00a7;stop-opacity:1"
         offset="0"
         id="stop21052" />
      <stop
         style="stop-color:#7cc022;stop-opacity:1"
         offset="1"
         id="stop21054" />
    </linearGradient>
    <linearGradient
       inkscape:collect="always"
       xlink:href="#linearGradient21056"
       id="linearGradient21058"
       x1="88.451543"
       y1="131.4456"
       x2="154.37349"
       y2="131.4456"
       gradientUnits="userSpaceOnUse" />
    <linearGradient
       inkscape:collect="always"
       xlink:href="#linearGradient21056"
       id="linearGradient21262"
       x1="103.88389"
       y1="106.88133"
       x2="188.77773"
       y2="106.88133"
       gradientUnits="userSpaceOnUse"
       gradientTransform="translate(-22.592417,-0.8790215)" />
    <linearGradient
       inkscape:collect="always"
       xlink:href="#linearGradient21056"
       id="linearGradient21270"
       x1="55.622948"
       y1="154.46822"
       x2="139.37669"
       y2="154.46822"
       gradientUnits="userSpaceOnUse"
       gradientTransform="translate(-22.592417,-0.8790215)" />
    <linearGradient
       inkscape:collect="always"
       xlink:href="#linearGradient21056"
       id="linearGradient21352"
       gradientUnits="userSpaceOnUse"
       x1="88.451543"
       y1="131.4456"
       x2="154.37349"
       y2="131.4456" />
    <linearGradient
       inkscape:collect="always"
       xlink:href="#linearGradient21056"
       id="linearGradient21354"
       gradientUnits="userSpaceOnUse"
       x1="88.451543"
       y1="131.4456"
       x2="154.37349"
       y2="131.4456" />
    <linearGradient
       inkscape:collect="always"
       xlink:href="#linearGradient21056"
       id="linearGradient21356"
       gradientUnits="userSpaceOnUse"
       x1="88.451543"
       y1="131.4456"
       x2="154.37349"
       y2="131.4456" />
    <linearGradient
       inkscape:collect="always"
       xlink:href="#linearGradient21056"
       id="linearGradient21358"
       gradientUnits="userSpaceOnUse"
       x1="88.451543"
       y1="131.4456"
       x2="154.37349"
       y2="131.4456" />
    <linearGradient
       inkscape:collect="always"
       xlink:href="#linearGradient21056"
       id="linearGradient21360"
       gradientUnits="userSpaceOnUse"
       x1="88.451543"
       y1="131.4456"
       x2="154.37349"
       y2="131.4456" />
    <linearGradient
       inkscape:collect="always"
       xlink:href="#linearGradient21056"
       id="linearGradient21362"
       gradientUnits="userSpaceOnUse"
       x1="88.451543"
       y1="131.4456"
       x2="154.37349"
       y2="131.4456" />
    <linearGradient
       inkscape:collect="always"
       xlink:href="#linearGradient21056"
       id="linearGradient21364"
       gradientUnits="userSpaceOnUse"
       x1="88.451543"
       y1="131.4456"
       x2="154.37349"
       y2="131.4456" />
    <linearGradient
       inkscape:collect="always"
       xlink:href="#linearGradient21056"
       id="linearGradient21366"
       gradientUnits="userSpaceOnUse"
       x1="88.451543"
       y1="131.4456"
       x2="154.37349"
       y2="131.4456" />
  </defs>
  <g
     inkscape:label="Layer 1"
     inkscape:groupmode="layer"
     id="layer1">
    <path
       id="path31"
       style="opacity:0.970856;fill:none;fill-rule:evenodd;stroke:url(#linearGradient21270);stroke-width:1.98529;stroke-linecap:round;stroke-miterlimit:4;stroke-dasharray:none;stroke-opacity:1;paint-order:stroke fill markers"
       d="m 115.79162,153.62546 a 40.884165,41.40328 0 0 0 -0.71628,-7.59666 l -35.784547,-0.0316 c -9.022129,-0.008 -16.279275,-7.37004 -16.271427,-16.50671 0.0079,-9.13668 7.277634,-16.48597 16.299757,-16.47802 l 3.59722,0.003 a 40.884165,41.40328 0 0 0 -7.973629,-0.82935 40.884165,41.40328 0 0 0 -40.919521,41.36705 40.884165,41.40328 0 0 0 40.848387,41.43909 40.884165,41.40328 0 0 0 40.92004,-41.36705 z"
       inkscape:export-filename="/home/tifukelison/Desktop/Glistron/assets/images/round.png"
       inkscape:export-xdpi="96.400002"
       inkscape:export-ydpi="96.400002" />
    <text
       xml:space="preserve"
       style="font-style:normal;font-weight:normal;font-size:17.6389px;line-height:1.25;font-family:sans-serif;letter-spacing:0px;word-spacing:0px;fill:#000000;fill-opacity:1;stroke:none;stroke-width:0.264583"
       x="76.140076"
       y="130.56062"
       id="text4664"><tspan
         sodipodi:role="line"
         id="tspan4662"
         style="stroke-width:0.264583"
         x="76.140076"
         y="130.56062" /></text>
    <path
       id="path2712"
       style="opacity:0.970856;fill:none;fill-opacity:1;fill-rule:evenodd;stroke:url(#linearGradient21262);stroke-width:2;stroke-linecap:round;stroke-miterlimit:4;stroke-dasharray:none;stroke-opacity:1;paint-order:stroke fill markers"
       d="m 82.293853,105.40146 a 41.447796,41.447796 0 0 0 0.62249,7.61401 l 36.274077,0.52577 c 9.14555,0.13259 16.40167,7.60209 16.26912,16.74764 -0.1326,9.14555 -7.60209,16.40166 -16.74763,16.26911 l -3.64644,-0.0527 a 41.447796,41.447796 0 0 0 8.0715,0.94028 41.447796,41.447796 0 0 0 42.04389,-40.84261 41.447796,41.447796 0 0 0 -40.84259,-42.0439 41.447796,41.447796 0 0 0 -42.044427,40.84259 z"
       inkscape:export-filename="/home/tifukelison/Desktop/Glistron/assets/images/round.png"
       inkscape:export-xdpi="96.400002"
       inkscape:export-ydpi="96.400002" />
    <g
       aria-label="Glistron"
       id="text8378"
       style="font-size:17.6389px;line-height:1.25;letter-spacing:0px;word-spacing:0px;fill:url(#linearGradient21058);fill-opacity:1;stroke-width:0.264583"
       transform="translate(-22.592417,-0.8790215)"
       inkscape:export-filename="/home/tifukelison/Desktop/Glistron/assets/images/glistron.png"
       inkscape:export-xdpi="96.400002"
       inkscape:export-ydpi="96.400002">
      <path
         d="m 97.96001,134.26885 v -3.45371 l -0.870922,0.0105 c -0.39413,1.26271 -0.124223,1.83528 -0.126932,2.69119 -0.03849,0.0245 0,0 -0.120056,0.0854 -0.219597,0.15615 -0.435343,0.33487 -0.358237,-0.27306 -0.171458,-0.80748 0.839942,-1.76626 -0.384444,-2.49155 l -0.981614,-0.0225 v -1.42972 h 4.564754 v 5.52077 c -0.671794,0.47657 -1.41249,0.83831 -2.222088,1.08521 -0.809598,0.24115 -1.674758,0.31857 -2.592436,0.36173 -0.07282,0.003 -0.356379,0.0942 -0.431685,0.41144 -0.126597,0.53331 0.0628,2.13559 -0.01989,2.55744 -0.0074,0.0377 -0.07147,0.2247 -0.149328,0.22828 -0.07473,0.003 -0.17609,-0.16449 -0.175167,-0.1764 0.04284,-0.55266 0.132095,-0.21188 0.130043,-0.50483 -0.004,-0.56603 -0.154984,-1.45889 -0.284177,-1.87669 -0.118212,-0.38229 -0.356522,-0.67228 -0.572785,-0.76215 -1.226364,-0.5096 -2.3806,-0.77256 -3.216792,-1.63409 -1.131141,-1.17707 -1.696711,-2.81349 -1.696711,-4.90926 0,-2.10151 0.56557,-3.73794 1.696711,-4.90927 1.136883,-1.17707 2.710144,-1.76561 4.719784,-1.76561 0.838307,0 1.633551,0.10335 2.38573,0.31006 0.757922,0.20671 1.455554,0.51102 2.092897,0.91295 v 1.85174 c 0.02714,1.78331 -0.396528,2.38036 -0.50843,1.70344 -0.0533,-0.32239 0.198914,-1.94011 0.166059,-1.97822 -0.443896,-0.51496 -1.110987,-0.72961 -1.707462,-0.95684 -0.723471,-0.27561 -1.484263,-0.41341 -2.282377,-0.41341 -1.573261,0 -2.756078,0.43925 -3.548451,1.31775 -0.786631,0.8785 -1.179946,2.18764 -1.179946,3.92741 0,1.73403 0.393315,3.0403 1.179946,3.9188 0.792373,0.8785 1.97519,1.31775 3.548451,1.31775 0.614375,0 1.16272,-0.0517 1.645034,-0.15503 0.482314,-0.10909 0.915822,-0.27561 1.300524,-0.49954 z"
         id="path10741"
         sodipodi:nodetypes="ccccscccccccsssssssscscscccsssscscsccc"
         style="fill:url(#linearGradient21352);fill-opacity:1" />
      <path
         d="m 102.79176,122.70193 h 1.58475 v 13.40143 h -1.58475 z"
         id="path10743"
         style="fill:url(#linearGradient21354);fill-opacity:1" />
      <path
         d="m 107.69241,126.45709 h 1.58475 v 9.64627 h -1.58475 z m 0,-3.75516 c 0.19194,-0.47289 1.1246,-0.46487 1.58475,0 0.72983,0.56127 1.02833,1.72218 0,2.00677 0.25596,0.003 0.23907,0.20815 0.1565,0.46214 -0.77174,0.25985 -0.939,0.21113 -0.89337,-0.40582 -0.0889,0.23818 0.0187,0.60455 -0.48428,0.57272 -0.31361,0.009 -0.38643,-0.25601 -0.3636,-0.62904 -0.60224,7.5e-4 -1.16608,-0.3658 0,-2.00677 z"
         id="path10745"
         sodipodi:nodetypes="ccccccccccccc"
         style="fill:url(#linearGradient21356);fill-opacity:1" />
      <path
         d="m 118.74256,126.74131 v 1.49862 c -0.97385,-0.79905 -0.72439,1.63424 -0.88987,1.60787 -0.12982,-0.0207 -0.008,-1.00744 -0.1137,-1.63006 -0.0531,-0.31255 -0.21994,-0.49552 -0.39169,-0.49458 -0.49578,0.003 -0.98185,-0.17225 -1.49862,-0.17225 -0.78663,0 -1.37804,0.12058 -1.77422,0.36173 -0.39045,0.24116 -0.58567,0.6029 -0.58567,1.08521 0,0.36747 0.14067,0.65744 0.42202,0.86989 0.28135,0.2067 0.84692,0.40479 1.69671,0.59428 l 0.54261,0.12057 c 1.12539,0.24116 1.92351,0.5828 2.39434,1.02492 0.47657,0.43638 0.71486,1.04788 0.71486,1.83451 0,0.89573 -0.35599,1.60484 -1.06798,2.12735 -0.70625,0.52251 -1.67949,0.78376 -2.91972,0.78376 -0.1378,0 -0.71834,-0.12875 -0.89551,0.29078 -0.19278,0.45647 0.0224,1.47019 0.003,1.62727 -0.50857,4.17784 -0.47756,-2.02727 -0.72695,-2.07308 -0.55696,-0.0976 -1.1455,-0.24689 -1.76561,-0.44786 v -1.63642 c 0.58567,0.30431 1.16272,0.53399 1.73116,0.68902 0.56844,0.14929 1.13114,0.22393 1.6881,0.22393 0.74643,0 1.32062,-0.12632 1.72255,-0.37896 0.40193,-0.25838 0.60289,-0.62012 0.60289,-1.08521 0,-0.43063 -0.14642,-0.76079 -0.43925,-0.99046 -0.28709,-0.22967 -0.92157,-0.45073 -1.90342,-0.66318 l -0.55121,-0.12919 c -0.98185,-0.20671 -1.69097,-0.52251 -2.12735,-0.94741 -0.43638,-0.43063 -0.65457,-1.01917 -0.65457,-1.76561 0,-0.90721 0.32154,-1.60771 0.96463,-2.10151 0.64308,-0.49379 1.55603,-0.74069 2.73885,-0.74069 0.58567,0 1.13688,0.0431 1.65365,0.12919 0.51676,0.0861 0.99333,0.21532 1.42971,0.38757 z"
         id="path10747"
         sodipodi:nodetypes="ccsssscsccccscsssccccscsccccsssscc"
         style="fill:url(#linearGradient21358);fill-opacity:1" />
      <path
         d="m 123.35038,123.71824 v 2.73885 h 3.26423 v 1.23162 c -0.0468,0.23028 -0.80324,-0.0828 -0.85049,0.14127 -0.12765,0.60544 0.17093,2.23693 0.14927,2.55526 -0.0323,0.47444 -0.38849,-0.7378 -0.80488,-2.69653 h -1.75813 v 5.23655 c 0,0.78663 0.10622,1.29191 0.31867,1.51584 0.21819,0.22393 0.65744,0.3359 1.31775,0.3359 h 1.62781 v 1.32636 c -0.12591,5.7e-4 -0.82481,-0.15282 -0.88998,0.12938 -0.0837,0.36256 0.48646,2.0418 -0.003,2.02407 -0.0809,-0.003 0.005,0.31633 -0.12997,-0.22241 -0.1333,-0.53331 -0.48666,-1.92464 -0.60497,-1.93104 -1.22122,-0.066 -2.06705,-0.2268 -2.53214,-0.6804 -0.46509,-0.45935 -0.69764,-1.29191 -0.69764,-2.4977 v -5.23655 h -1.16272 v -1.23162 h 1.16272 v -2.73885 z"
         id="path10749"
         sodipodi:nodetypes="ccccssccscsccsssscscccccc"
         style="fill:url(#linearGradient21360);fill-opacity:1" />
      <path
         d="m 134.28857,127.93848 q -0.267,-0.15503 -0.58567,-0.22393 -0.31006,-0.0775 -0.68902,-0.0775 -1.34359,0 -2.06706,0.8785 -0.71486,0.86988 -0.71486,2.5063 v 5.08152 h -1.59335 v -9.64627 h 1.59335 v 1.49862 q 0.49954,-0.8785 1.30053,-1.30053 0.80098,-0.43063 1.94648,-0.43063 0.16364,0 0.36173,0.0258 0.1981,0.0172 0.43925,0.0603 z"
         id="path10751"
         style="fill:url(#linearGradient21362);fill-opacity:1" />
      <path
         d="m 139.49362,130.31818 c -0.0989,0 -0.39456,1.00283 -0.51773,0.59551 -0.24104,-0.79706 -0.32291,-3.2795 -0.48848,-3.22734 -0.47714,0.1503 -0.87767,0.44392 -1.20161,0.88086 -0.49379,0.66031 -0.74069,1.56752 -0.74069,2.72163 0,1.15411 0.24403,2.06419 0.73208,2.73024 0.4938,0.66031 1.16846,0.99046 2.02399,0.99046 0.84405,0 1.51298,-0.33302 2.00677,-0.99907 0.4938,-0.66605 0.7407,-1.57326 0.7407,-2.72163 0,-1.14263 -0.2469,-2.04697 -0.7407,-2.71302 -0.24383,-0.33173 -0.53037,-0.58155 -0.85961,-0.74948 -0.23197,-0.11831 -0.0887,3.14377 -0.30618,3.91922 -0.099,0.35279 -0.51494,-1.42738 -0.64854,-1.42738 z m 0.0429,-0.33724 c 0.18065,0 0.25211,-0.96384 0.38833,-1.49526 0.27725,-1.08157 0.57593,-2.14351 0.8808,-2.04842 0.68806,0.21459 1.26891,0.59154 1.74255,1.13087 0.78663,0.89572 1.17994,2.13596 1.17994,3.72071 0,1.579 -0.39331,2.81923 -1.17994,3.7207 -0.5023,0.57196 -1.12516,0.96131 -1.8686,1.16805 -0.0849,0.0236 0.0484,0.48528 -0.0265,0.87945 -0.24592,1.29389 -0.68839,3.74178 -1.17777,3.46179 -0.28825,-0.16492 0.1841,-1.57099 0.38837,-1.70832 0.23447,-0.15763 0.0848,-1.58993 -0.44867,-2.2102 -0.51752,-0.60177 -1.41228,-0.39321 -1.6388,-0.46458 -0.68357,-0.21537 -1.26046,-0.59077 -1.73067,-1.12619 -0.78089,-0.90147 -1.17134,-2.1417 -1.17134,-3.7207 0,-1.58475 0.39045,-2.82498 1.17134,-3.72071 0.58669,-0.66806 1.33947,-1.08699 2.25834,-1.25678 0.31314,-0.0579 0.88089,3.66959 1.2326,3.66959 z"
         id="path10753"
         sodipodi:nodetypes="ssscscssscsssssssscsssssscscss"
         style="fill:url(#linearGradient21364);fill-opacity:1" />
      <path
         d="m 154.37349,130.28115 v 5.82221 c -0.3755,2.38838 -0.46288,3.61414 -0.85712,1.56923 -0.035,-0.18141 0.22398,-0.68725 0.17865,-0.91645 -0.0563,-0.28464 -0.84767,-0.28342 -0.90628,-0.65278 v -5.77054 c 0,-0.91295 -0.11873,-2.44989 -0.53399,-2.04983 -0.16586,0.15979 -1.01171,5.70973 -1.23922,5.52873 -0.21224,-0.16885 0.30238,-1.47431 0.27226,-2.95377 -0.0339,-1.66586 -0.59973,-3.50357 -0.63501,-3.25537 -0.038,0.26751 -1.22688,0.14689 -1.33368,0.36571 -0.27671,0.56695 0.40872,1.37214 0.31639,1.93194 -0.18903,1.14599 -0.005,3.18327 -0.0984,3.73341 -0.21371,1.26408 -0.57555,-0.57293 -0.90832,-5.21285 -0.0526,-0.7339 -0.74069,1.28905 -0.74069,2.23071 v 5.45186 c -0.10021,0.35084 -0.70042,0.51342 -0.79821,0.92436 -0.35617,1.49687 -0.22003,2.99227 -0.79515,-0.92436 v -9.64627 h 1.59336 v 1.49862 c 0.37896,-0.57993 0.82395,-1.01344 1.33497,-1.30053 0.51677,-0.28709 1.11105,-0.43063 1.78284,-0.43063 1.10817,0 1.94648,0.34451 2.51492,1.03352 0.56845,0.68328 0.85267,1.69097 0.85267,3.02308 z"
         id="path10755"
         sodipodi:nodetypes="scsscsssssssssscscccccscs"
         style="fill:url(#linearGradient21366);fill-opacity:1" />
    </g>
  </g>
</svg>
